<svg width="139" height="40" viewBox="0 0 139 40" fill="none" xmlns="http://www.w3.org/2000/svg">
<path d="M23.5692 0V39.4136H13.3206V22.8553H10.2486V39.4136H0V0H10.2486V14.0982H13.3206V0H23.5692Z" fill="url(#paint0_linear_1150_18594)"/>
<path d="M49.6618 23.8377H36.9276V30.8231C36.9276 32.289 37.0296 33.2195 37.2463 33.6402C37.4629 34.0608 37.8581 34.2775 38.4572 34.2775C39.2093 34.2775 39.7064 33.9971 39.9486 33.4362C40.2036 32.8753 40.331 31.7918 40.331 30.1857V25.9282H49.6491V28.3119C49.6491 30.3132 49.5216 31.8428 49.2667 32.9136C49.0117 33.9843 48.4254 35.1316 47.5076 36.3425C46.577 37.5662 45.4043 38.4713 43.9894 39.0831C42.5745 39.695 40.7899 40.0009 38.6484 40.0009C36.5069 40.0009 34.7351 39.695 33.1417 39.0959C31.5484 38.4968 30.3119 37.6682 29.4324 36.623C28.5528 35.5777 27.941 34.4177 27.5968 33.1685C27.2526 31.9066 27.0869 30.0838 27.0869 27.6746V18.2546C27.0869 15.4375 27.4693 13.2068 28.2341 11.5751C28.999 9.94353 30.2482 8.69433 31.9818 7.82754C33.7153 6.96074 35.7166 6.52734 37.9728 6.52734C40.7262 6.52734 43.0079 7.04997 44.8052 8.09522C46.6025 9.14047 47.8517 10.5299 48.5783 12.2635C49.3049 13.9971 49.6618 16.419 49.6618 19.5548V23.8377ZM39.7956 18.5732V16.215C39.7956 14.5452 39.7064 13.4617 39.528 12.9773C39.3495 12.4929 38.9798 12.2507 38.4317 12.2507C37.7561 12.2507 37.3227 12.4547 37.1698 12.8753C37.0041 13.2832 36.9276 14.405 36.9276 16.2278V18.586H39.7956V18.5732Z" fill="url(#paint1_linear_1150_18594)"/>
<path d="M72.9505 17.4252H64.2315V15.6661C64.2315 14.1747 64.1423 13.2314 63.9766 12.8235C63.8109 12.4284 63.3775 12.2244 62.7019 12.2244C62.1538 12.2244 61.7331 12.4029 61.4655 12.7725C61.185 13.1422 61.0575 13.6903 61.0575 14.4169C61.0575 15.4112 61.1213 16.1377 61.2615 16.5966C61.4017 17.0555 61.8096 17.5654 62.498 18.1135C63.1863 18.6616 64.6012 19.4647 66.7427 20.5227C69.598 21.9121 71.4718 23.2378 72.3641 24.4615C73.2564 25.698 73.7025 27.4825 73.7025 29.8407C73.7025 32.4666 73.3584 34.4551 72.6828 35.7936C72.0072 37.132 70.86 38.1645 69.2666 38.8911C67.6732 39.6177 65.7357 39.9746 63.4795 39.9746C60.9811 39.9746 58.8396 39.5794 57.0677 38.8019C55.2959 38.0243 54.0722 36.9663 53.4094 35.6406C52.7465 34.3149 52.4151 32.3009 52.4151 29.5985V28.0434H61.134V30.0829C61.134 31.8165 61.2488 32.951 61.4655 33.4609C61.6821 33.9835 62.1155 34.2384 62.7656 34.2384C63.4667 34.2384 63.9511 34.06 64.2315 33.7158C64.512 33.3717 64.6394 32.6323 64.6394 31.5106C64.6394 29.9682 64.461 28.9994 64.1041 28.617C63.7344 28.2219 61.8224 27.0746 58.3807 25.1626C55.4871 23.5437 53.728 22.0651 53.1034 20.7394C52.4788 19.4137 52.1602 17.8458 52.1602 16.023C52.1602 13.4481 52.5043 11.5361 53.1799 10.3124C53.8555 9.08866 55.0155 8.14539 56.6471 7.48254C58.2787 6.8197 60.178 6.48828 62.3322 6.48828C64.4865 6.48828 66.2966 6.75597 67.8007 7.30409C69.3048 7.85221 70.4521 8.56604 71.2551 9.45833C72.0582 10.3506 72.5426 11.1792 72.721 11.944C72.8867 12.7088 72.976 13.8943 72.976 15.5259V17.3997L72.9505 17.4252Z" fill="url(#paint2_linear_1150_18594)"/>
<path d="M86.7048 2.80469V7.89073H89.3561V13.0023H86.7048V30.2872C86.7048 32.4159 86.8195 33.6014 87.0362 33.8436C87.2529 34.0858 88.1707 34.2132 89.7768 34.2132V39.4267H85.8125C83.569 39.4267 81.9756 39.3375 81.0196 39.1463C80.0636 38.9551 79.2223 38.5345 78.483 37.8589C77.7564 37.1833 77.2975 36.4185 77.119 35.5517C76.9406 34.6849 76.8513 32.6454 76.8513 29.4331V13.0278H74.7354V7.91622H76.8513V2.83018H86.7048V2.80469Z" fill="url(#paint3_linear_1150_18594)"/>
<path d="M114.048 7.10938V39.4102H104.042L104.207 36.7206C103.532 37.8041 102.69 38.6326 101.683 39.168C100.689 39.7161 99.5418 39.9838 98.2417 39.9838C96.763 39.9838 95.5393 39.7289 94.5705 39.2063C93.6018 38.6836 92.8752 37.9953 92.4163 37.1412C91.9574 36.2872 91.6642 35.3822 91.5495 34.4516C91.4348 33.5211 91.3838 31.66 91.3838 28.894V7.10938H101.212V29.0852C101.212 31.5963 101.288 33.0877 101.441 33.5593C101.594 34.031 102.015 34.2604 102.69 34.2604C103.417 34.2604 103.85 34.0182 103.991 33.5339C104.131 33.0495 104.194 31.4816 104.194 28.8302V7.10938H114.022H114.048Z" fill="url(#paint4_linear_1150_18594)"/>
<path d="M137.655 17.4252H128.936V15.6661C128.936 14.1747 128.846 13.2314 128.681 12.8235C128.515 12.4284 128.082 12.2244 127.406 12.2244C126.858 12.2244 126.437 12.4029 126.17 12.7725C125.889 13.1422 125.762 13.6903 125.762 14.4169C125.762 15.4112 125.825 16.1377 125.966 16.5966C126.106 17.0555 126.514 17.5654 127.202 18.1135C127.89 18.6616 129.305 19.4647 131.447 20.5227C134.302 21.9121 136.176 23.2378 137.068 24.4615C137.96 25.698 138.407 27.4825 138.407 29.8407C138.407 32.4666 138.062 34.4551 137.387 35.7936C136.711 37.132 135.564 38.1645 133.971 38.8911C132.377 39.6177 130.44 39.9746 128.184 39.9746C125.685 39.9746 123.544 39.5794 121.772 38.8019C120 38.0243 118.776 36.9663 118.113 35.6406C117.451 34.3149 117.119 32.3009 117.119 29.5985V28.0434H125.838V30.0829C125.838 31.8165 125.953 32.951 126.17 33.4609C126.386 33.9835 126.82 34.2384 127.47 34.2384C128.171 34.2384 128.655 34.06 128.936 33.7158C129.216 33.3717 129.344 32.6323 129.344 31.5106C129.344 29.9682 129.165 28.9994 128.808 28.617C128.439 28.2219 126.526 27.0746 123.085 25.1626C120.191 23.5437 118.432 22.0651 117.808 20.7394C117.183 19.4137 116.864 17.8458 116.864 16.023C116.864 13.4481 117.208 11.5361 117.884 10.3124C118.56 9.08866 119.72 8.14539 121.351 7.48254C122.983 6.8197 124.882 6.48828 127.036 6.48828C129.191 6.48828 131.001 6.75597 132.505 7.30409C134.009 7.85221 135.156 8.56604 135.959 9.45833C136.762 10.3506 137.247 11.1792 137.425 11.944C137.591 12.7088 137.68 13.8943 137.68 15.5259V17.3997L137.655 17.4252Z" fill="url(#paint5_linear_1150_18594)"/>
<defs>
<linearGradient id="paint0_linear_1150_18594" x1="-14.8375" y1="12.4793" x2="140.612" y2="54.6845" gradientUnits="userSpaceOnUse">
<stop stop-color="#62635D"/>
<stop offset="1" stop-color="#232323"/>
</linearGradient>
<linearGradient id="paint1_linear_1150_18594" x1="-13.9201" y1="9.07674" x2="141.529" y2="51.2947" gradientUnits="userSpaceOnUse">
<stop stop-color="#62635D"/>
<stop offset="1" stop-color="#232323"/>
</linearGradient>
<linearGradient id="paint2_linear_1150_18594" x1="-12.2248" y1="2.86814" x2="143.225" y2="45.0734" gradientUnits="userSpaceOnUse">
<stop stop-color="#62635D"/>
<stop offset="1" stop-color="#232323"/>
</linearGradient>
<linearGradient id="paint3_linear_1150_18594" x1="-10.2105" y1="-4.56306" x2="145.239" y2="37.6422" gradientUnits="userSpaceOnUse">
<stop stop-color="#62635D"/>
<stop offset="1" stop-color="#232323"/>
</linearGradient>
<linearGradient id="paint4_linear_1150_18594" x1="-9.38104" y1="-7.63887" x2="146.068" y2="34.5664" gradientUnits="userSpaceOnUse">
<stop stop-color="#62635D"/>
<stop offset="1" stop-color="#232323"/>
</linearGradient>
<linearGradient id="paint5_linear_1150_18594" x1="-7.78841" y1="-13.499" x2="147.661" y2="28.7063" gradientUnits="userSpaceOnUse">
<stop stop-color="#62635D"/>
<stop offset="1" stop-color="#232323"/>
</linearGradient>
</defs>
</svg>
