<svg width="204" height="40" viewBox="0 0 204 40" fill="none" xmlns="http://www.w3.org/2000/svg">
<path d="M98.9997 28.6336C97.7753 29.9986 96.4907 30.9219 94.9551 31.4739C90.9105 32.9191 85.9025 31.223 83.5941 27.4594C80.6334 22.632 80.6033 17.6741 83.5941 12.8667C86.7355 7.82856 93.6705 6.84501 98.2269 10.6588C98.4477 10.8394 98.6685 11.01 98.8793 11.1807C99.1001 11.0201 99.0098 10.8194 99.0298 10.6487C99.2205 9.15334 100.274 8.29022 101.82 8.37051C103.135 8.44077 104.088 9.4745 104.088 10.9197C104.108 14.613 104.088 18.2963 104.088 21.9897C104.088 24.6794 104.088 27.3691 104.088 30.0588C104.078 35.2977 101.127 38.7301 95.9487 39.7236C92.6267 40.3559 89.4452 39.7738 86.2939 38.8405C85.7921 38.6899 85.3404 38.3989 84.9289 38.0576C83.9654 37.2648 83.7948 36.2411 84.4071 35.0167C84.939 33.9629 85.8623 33.5112 87.0265 33.8525C88.2911 34.2238 89.5155 34.7055 90.77 35.0869C92.4962 35.6088 94.2225 35.4884 95.9085 34.9464C97.7452 34.3543 98.789 33.0596 98.9696 31.1427C99.0399 30.39 98.9796 29.6272 98.9796 28.6437L98.9997 28.6336ZM98.5782 19.8921C98.5782 19.31 98.4979 18.4268 98.2269 17.5637C97.434 15.0747 95.4168 13.3184 93.0382 13.0875C90.1779 12.8065 87.9297 13.8101 86.615 16.3895C85.3504 18.8784 85.3304 21.4778 86.615 23.9768C88.4115 27.5196 92.9178 28.5132 96.039 26.0644C97.9158 24.589 98.6183 22.5416 98.5882 19.8921H98.5782Z" fill="url(#paint0_linear_1150_18592)"/>
<path d="M148.478 11.1603C148.528 10.6585 148.588 10.1668 148.829 9.71512C149.411 8.61114 150.505 8.11936 151.77 8.41041C152.823 8.65128 153.576 9.61476 153.576 10.799C153.576 17.4932 153.606 24.1873 153.576 30.8715C153.546 35.1569 150.706 38.4287 146.3 39.5327C142.657 40.446 139.124 39.9342 135.671 38.7398C133.644 38.0373 133.042 36.4014 134.056 34.7755C134.598 33.9124 135.511 33.521 136.504 33.8221C137.639 34.1633 138.743 34.5849 139.867 34.9562C141.814 35.5985 143.761 35.5483 145.688 34.8458C147.464 34.1934 148.478 32.7482 148.518 30.8815C148.528 30.179 148.518 29.4764 148.518 28.5932C147.213 30.1288 145.758 31.1725 143.991 31.6141C140.097 32.5977 136.675 31.584 134.015 28.6233C129.85 23.9866 129.941 16.2286 134.066 11.5919C137.669 7.53726 144.042 7.23618 148.046 10.9195C148.157 11.0198 148.187 11.2005 148.257 11.341C148.327 11.2808 148.407 11.2206 148.478 11.1603ZM147.906 20.1126C147.956 19.1793 147.805 18.2559 147.504 17.3928C146.691 15.0343 145.136 13.4185 142.586 13.017C139.967 12.6056 137.779 13.3984 136.274 15.6566C134.989 17.5835 134.778 19.7112 135.19 21.9392C136.003 26.3953 140.93 28.7036 144.744 26.3652C147.053 24.9501 147.845 22.702 147.906 20.1126Z" fill="url(#paint1_linear_1150_18592)"/>
<path d="M0.00218954 19.9611C-0.128281 12.7752 5.58233 5.4889 14.4042 5.21792C22.8747 4.96701 29.5789 11.5106 29.7395 19.931C29.89 27.96 23.517 34.7344 15.3175 34.9753C6.70639 35.2362 -0.118235 28.3514 0.0122356 19.9511L0.00218954 19.9611ZM24.5508 20.3826C24.7013 19.8306 24.5307 19.2887 24.4705 18.7367C23.8482 12.996 17.7563 8.99154 12.2263 10.6877C9.80758 11.4303 7.8204 12.7551 6.57591 15.0333C5.56225 16.6191 5.07048 18.3553 5.18088 20.2421C5.17084 20.473 5.1307 20.7138 5.15077 20.9447C5.63251 27.1872 11.9754 31.3723 17.9269 29.345C20.0144 28.6324 21.7908 27.4582 22.8948 25.461C24.0289 23.9555 24.5006 22.2393 24.5407 20.3826H24.5508Z" fill="url(#paint2_linear_1150_18592)"/>
<path d="M73.7879 10.931C73.7879 8.05061 73.7879 5.32076 73.7879 2.58087C73.7879 1.48693 74.4804 0.52345 75.4338 0.212327C76.5478 -0.148977 77.7422 0.212329 78.3945 1.13566C78.8261 1.74787 78.8562 2.4504 78.8562 3.17301C78.8562 11.2923 78.8562 19.4016 78.8562 27.5209C78.8562 27.9725 78.8562 28.4141 78.8562 28.8657C78.816 30.3109 77.973 31.3547 76.7385 31.4952C75.1929 31.6759 74.1793 30.9633 73.7879 29.4077C73.7678 29.3374 73.7477 29.2571 73.7076 29.0965C72.5936 30.1905 71.3692 31.0335 69.9139 31.4852C66.4313 32.559 63.28 31.9067 60.5501 29.5281C57.8705 27.1897 56.7464 24.1387 56.6561 20.626C56.5758 17.4044 57.3385 14.5039 59.3859 11.9447C62.5674 7.96029 68.7497 7.14735 72.8244 10.2285C73.0954 10.4292 73.3764 10.6299 73.7979 10.931H73.7879ZM73.6273 19.7729C73.6875 18.8897 73.4667 17.7456 72.9749 16.6918C71.9613 14.4738 70.3153 13.0788 67.7661 12.9483C65.2571 12.8279 63.3803 13.8515 62.176 16.0495C60.8914 18.3879 60.8211 20.8468 61.7645 23.2856C63.4907 27.7517 68.4285 28.1833 71.1283 25.9653C72.9649 24.4498 73.6374 22.3924 73.6273 19.7729Z" fill="url(#paint3_linear_1150_18592)"/>
<path d="M198.338 29.1153C197.194 30.1892 195.929 31.0423 194.454 31.4839C190.981 32.5276 187.86 31.785 185.18 29.4064C181.929 26.526 181.056 22.7524 181.417 18.5974C181.748 14.7435 183.424 11.6423 186.776 9.60492C190.189 7.52742 194.554 7.88873 197.836 10.3877C197.997 10.5082 198.127 10.7892 198.338 10.6989C198.609 10.5885 198.478 10.2874 198.478 10.0666C198.478 7.63782 198.478 5.21909 198.478 2.79033C198.478 1.10425 199.502 -0.0198079 201.028 0.000264505C202.503 0.0103007 203.527 1.13435 203.537 2.77026C203.537 11.3914 203.537 20.0024 203.537 28.6235C203.537 30.2394 202.754 31.2831 201.379 31.4738C200.215 31.6344 198.81 31.0322 198.478 29.3863C198.468 29.316 198.418 29.2458 198.348 29.1053L198.338 29.1153ZM186.214 20.0727C186.174 21.2469 186.355 22.381 186.836 23.4649C187.75 25.5224 189.245 26.9274 191.543 27.1984C194.133 27.4995 196.24 26.6263 197.555 24.308C199.061 21.6383 199.091 18.8483 197.706 16.1485C196.06 12.9671 192.196 11.9333 189.245 13.8302C186.997 15.2754 186.234 17.5135 186.214 20.0727Z" fill="url(#paint4_linear_1150_18592)"/>
<path d="M44.8043 21.9917C42.5561 21.9917 40.308 22.0118 38.0699 21.9817C37.5079 21.9817 37.4076 22.082 37.5882 22.6441C38.6119 25.8557 41.5324 27.7023 45.015 27.3209C46.2394 27.1905 47.3835 26.8794 48.4173 26.1768C48.889 25.8456 49.431 25.5947 50.0131 25.5144C50.8962 25.394 51.6389 25.675 52.1608 26.4076C52.6927 27.1503 52.6827 27.9231 52.2311 28.7059C51.9099 29.268 51.4181 29.6795 50.8962 30.0207C46.3197 33.0416 38.9331 32.7505 35.0089 28.1439C33.5737 26.4578 32.7407 24.4807 32.4999 22.2928C32.1185 18.6998 32.6103 15.3076 34.9788 12.3971C39.5051 6.83703 47.514 7.0478 51.7694 12.8186C53.1945 14.7556 53.9774 16.9134 54.0275 19.3321C54.0577 20.9078 53.054 21.9716 51.4683 21.9917C49.2503 22.0118 47.0323 21.9917 44.8143 21.9917H44.8043ZM37.4678 17.5858C41.1009 17.5858 44.6637 17.5858 48.2266 17.5858C48.5678 17.5858 48.608 17.4353 48.5879 17.1543C48.5076 16.251 48.1162 15.4883 47.504 14.8459C45.8079 13.0695 43.7304 12.6781 41.412 13.19C39.1238 13.7018 37.9997 15.2976 37.4678 17.5758V17.5858Z" fill="url(#paint5_linear_1150_18592)"/>
<path d="M111.775 21.9925C112.196 24.0801 113.29 25.6357 115.127 26.559C117.556 27.7734 120.014 27.653 122.403 26.3683C122.985 26.0572 123.527 25.6859 124.179 25.5353C125.103 25.3346 126.026 25.6859 126.538 26.4486C127.02 27.1813 126.98 28.1046 126.428 28.8774C126.026 29.4494 125.474 29.8609 124.892 30.2122C120.536 32.8718 113.922 32.5908 110.109 28.9376C108.252 27.1612 107.158 24.9733 106.857 22.4442C106.476 19.1824 106.797 16.031 108.694 13.2109C113.36 6.27583 123.276 6.878 127.07 14.3249C127.873 15.8905 128.345 17.5465 128.355 19.3129C128.365 20.9488 127.371 21.9725 125.715 21.9725C121.379 21.9725 117.054 21.9725 112.718 21.9725C112.427 21.9725 112.136 21.9725 111.775 21.9725V21.9925ZM117.345 17.5866C118.69 17.5866 120.035 17.5866 121.389 17.5866C123.146 17.5866 123.326 17.2554 122.453 15.6697C122.423 15.6195 122.403 15.5794 122.373 15.5393C120.978 13.5722 119.051 12.7893 116.682 13.0402C114.254 13.2911 112.668 14.5457 111.965 16.9242C111.775 17.5766 111.985 17.6067 112.517 17.5967C114.123 17.5766 115.739 17.5967 117.355 17.5967L117.345 17.5866Z" fill="url(#paint6_linear_1150_18592)"/>
<path d="M161.344 11.924C163.201 9.34474 165.63 8.30097 168.611 8.55188C170.006 8.66228 171.009 9.71608 171.019 10.9305C171.039 12.8173 169.634 13.8811 167.798 13.3793C167.366 13.2589 166.955 13.0581 166.513 12.9879C164.656 12.6968 163.051 13.57 162.107 15.3665C161.585 16.3601 161.314 17.4139 161.314 18.5379C161.314 21.9101 161.314 25.2822 161.314 28.6544C161.314 29.2666 161.264 29.8688 160.963 30.4108C160.411 31.4043 159.197 31.8961 158.032 31.6051C157.019 31.3542 156.236 30.4007 156.226 29.2767C156.206 23.2951 156.206 17.3135 156.226 11.3319C156.226 9.96698 157.25 8.9734 158.615 8.88307C159.909 8.79274 161.053 9.73615 161.274 11.081C161.314 11.3118 161.304 11.5527 161.334 11.914L161.344 11.924Z" fill="url(#paint7_linear_1150_18592)"/>
<path d="M173.66 19.9416C173.66 16.9709 173.66 13.9902 173.66 11.0194C173.66 10.0058 174.131 9.24303 175.075 8.84158C176.038 8.42006 176.982 8.51039 177.825 9.18281C178.296 9.55415 178.597 10.0459 178.638 10.6581C178.668 10.9994 178.708 11.3406 178.708 11.6818C178.708 17.1817 178.708 22.6916 178.708 28.1914C178.708 28.7233 178.708 29.2452 178.527 29.747C178.096 30.9514 177.042 31.5033 175.607 31.3227C174.573 31.1922 173.69 30.1685 173.67 28.9541C173.629 26.8967 173.65 24.8493 173.65 22.7919C173.65 21.8485 173.65 20.8951 173.65 19.9517C173.65 19.9517 173.65 19.9517 173.66 19.9517V19.9416Z" fill="url(#paint8_linear_1150_18592)"/>
<path d="M178.897 2.58088C178.948 4.78884 178.034 5.11 176.348 5.15015C174.1 5.20033 173.438 4.56805 173.428 2.61099C173.428 0.694068 174.11 0.0116062 176.168 0.0316786C178.225 0.0617872 178.908 0.563599 178.897 2.58088Z" fill="url(#paint9_linear_1150_18592)"/>
<path d="M6.58578 15.0335C8.14139 15.0335 9.69701 15.0535 11.2526 15.0335C11.905 15.0335 12.2462 15.2944 12.2562 15.9568C12.2562 17.0608 12.2763 18.1648 12.2562 19.2688C12.2462 19.7806 12.1659 20.2924 11.4533 20.2824C9.36581 20.2623 7.28832 20.2523 5.20079 20.2322C5.09039 18.3454 5.58216 16.6192 6.59582 15.0234L6.58578 15.0335Z" fill="url(#paint10_linear_1150_18592)"/>
<path d="M22.9052 25.4619C21.4499 25.4619 20.0047 25.4418 18.5495 25.4619C17.8068 25.4719 17.4756 25.1307 17.4756 24.4181C17.4756 23.4145 17.4756 22.4209 17.4756 21.4173C17.4756 20.7148 17.7867 20.3534 18.5294 20.3635C20.5366 20.3836 22.5439 20.3735 24.5511 20.3735C24.5009 22.2302 24.0292 23.9464 22.9052 25.4518V25.4619Z" fill="url(#paint11_linear_1150_18592)"/>
<defs>
<linearGradient id="paint0_linear_1150_18592" x1="3.04354" y1="10.0967" x2="207.371" y2="40.7874" gradientUnits="userSpaceOnUse">
<stop stop-color="#62635D"/>
<stop offset="1" stop-color="#232323"/>
</linearGradient>
<linearGradient id="paint1_linear_1150_18592" x1="4.13695" y1="2.82024" x2="208.464" y2="33.5109" gradientUnits="userSpaceOnUse">
<stop stop-color="#62635D"/>
<stop offset="1" stop-color="#232323"/>
</linearGradient>
<linearGradient id="paint2_linear_1150_18592" x1="1.82878" y1="18.1446" x2="206.166" y2="48.8253" gradientUnits="userSpaceOnUse">
<stop stop-color="#62635D"/>
<stop offset="1" stop-color="#232323"/>
</linearGradient>
<linearGradient id="paint3_linear_1150_18592" x1="3.67492" y1="5.88279" x2="208.002" y2="36.5635" gradientUnits="userSpaceOnUse">
<stop stop-color="#62635D"/>
<stop offset="1" stop-color="#232323"/>
</linearGradient>
<linearGradient id="paint4_linear_1150_18592" x1="6.43565" y1="-12.4948" x2="210.763" y2="18.1959" gradientUnits="userSpaceOnUse">
<stop stop-color="#62635D"/>
<stop offset="1" stop-color="#232323"/>
</linearGradient>
<linearGradient id="paint5_linear_1150_18592" x1="2.45141" y1="14.0129" x2="206.789" y2="44.7037" gradientUnits="userSpaceOnUse">
<stop stop-color="#62635D"/>
<stop offset="1" stop-color="#232323"/>
</linearGradient>
<linearGradient id="paint6_linear_1150_18592" x1="4.09611" y1="3.09435" x2="208.424" y2="33.7851" gradientUnits="userSpaceOnUse">
<stop stop-color="#62635D"/>
<stop offset="1" stop-color="#232323"/>
</linearGradient>
<linearGradient id="paint7_linear_1150_18592" x1="5.11081" y1="-3.68227" x2="209.438" y2="27.0084" gradientUnits="userSpaceOnUse">
<stop stop-color="#62635D"/>
<stop offset="1" stop-color="#232323"/>
</linearGradient>
<linearGradient id="paint8_linear_1150_18592" x1="5.41253" y1="-5.67078" x2="209.74" y2="25.0099" gradientUnits="userSpaceOnUse">
<stop stop-color="#62635D"/>
<stop offset="1" stop-color="#232323"/>
</linearGradient>
<linearGradient id="paint9_linear_1150_18592" x1="7.96031" y1="-22.6702" x2="212.298" y2="8.01058" gradientUnits="userSpaceOnUse">
<stop stop-color="#62635D"/>
<stop offset="1" stop-color="#232323"/>
</linearGradient>
<linearGradient id="paint10_linear_1150_18592" x1="2.04942" y1="16.6995" x2="206.377" y2="47.3802" gradientUnits="userSpaceOnUse">
<stop stop-color="#62635D"/>
<stop offset="1" stop-color="#232323"/>
</linearGradient>
<linearGradient id="paint11_linear_1150_18592" x1="1.56818" y1="19.942" x2="205.896" y2="50.6227" gradientUnits="userSpaceOnUse">
<stop stop-color="#62635D"/>
<stop offset="1" stop-color="#232323"/>
</linearGradient>
</defs>
</svg>
